<svg width="44" height="44" viewBox="0 0 44 44" fill="none" xmlns="http://www.w3.org/2000/svg">
<path d="M0.999994 22C0.999995 10.402 10.402 1 22 1C33.598 1 43 10.402 43 22C43 33.598 33.598 43 22 43C10.402 43 0.999993 33.598 0.999994 22Z" stroke="#FFA500" stroke-width="2" stroke-linejoin="round"/>
<path d="M11.2929 21.2929C10.9024 21.6834 10.9024 22.3166 11.2929 22.7071L17.6569 29.0711C18.0474 29.4616 18.6805 29.4616 19.0711 29.0711C19.4616 28.6805 19.4616 28.0474 19.0711 27.6569L13.4142 22L19.0711 16.3431C19.4616 15.9526 19.4616 15.3195 19.0711 14.9289C18.6805 14.5384 18.0474 14.5384 17.6569 14.9289L11.2929 21.2929ZM32 23C32.5523 23 33 22.5523 33 22C33 21.4477 32.5523 21 32 21V23ZM12 23H32V21H12V23Z" fill="#FFA500"/>
</svg>
